<svg height="11" width="20" xmlns="http://www.w3.org/2000/svg">
  <path
    d="
      M 1 1
      a 3 3 0 0 0 3 3
      a 3 3 0 0 0 0 6
      l 8 0
      a 3 3 0 0 0 3 -3
      a 3 3 0 0 1 3 -3
      l 1 0
      l -3 0
      a 3 3 0 0 0 -3 3
      a 3 3 0 0 1 -3 3
      l -1 0
      l 0 -3
      a 3 3 0 0 1 3 -3
      l 1 0
      l -3 0
      a 3 3 0 0 0 -3 3
      l 0 3
      l -1 0
      a 3 3 0 0 1 0 -6
      a 3 3 0 0 1 -3 -3
      Z
    "
    style="
      fill: white;
      stroke: white;
      stroke-width: 0.25;
      stroke-linejoin: round;
      stroke-linecap: round;
    "
  />
</svg>
